<svg data-v-423bf9ae="" xmlns="http://www.w3.org/2000/svg" viewBox="0 0 687 90" class="iconLeft"><!----><!----><!----><g data-v-423bf9ae="" id="9a9204e7-74d9-4e90-af96-29aedb7f1cdf" fill="#ffffff" transform="matrix(4.460966289706529,0,0,4.460966289706529,104.69259577890244,-0.6133801066242199)"><path d="M3.88 3.78L1.48 3.78L1.48 14L2.58 14L2.58 10.91L3.88 10.91C6.33 10.91 8.12 9.39 8.12 7.32C8.12 5.19 6.30 3.78 3.88 3.78ZM3.91 9.95L2.58 9.95L2.58 4.73L3.91 4.73C5.67 4.73 7 5.74 7 7.32C7 8.83 5.70 9.95 3.91 9.95ZM12.53 6.58C10.81 6.58 9.59 7.56 9.49 9.02L10.49 9.02C10.54 8.18 11.34 7.49 12.49 7.49C13.78 7.49 14.53 8.16 14.53 9.67L14.53 9.94L12.26 9.93C10.35 9.93 9.20 10.79 9.20 12.01C9.20 13.27 10.25 14.14 11.59 14.14C12.88 14.14 13.90 13.55 14.66 12.96L14.87 14L15.55 14L15.55 9.67C15.55 7.70 14.46 6.58 12.53 6.58ZM10.23 12.00C10.23 11.19 10.95 10.79 12.28 10.79L14.53 10.79L14.53 12.11C13.78 12.70 12.82 13.22 11.80 13.22C10.95 13.22 10.23 12.78 10.23 12.00ZM23.06 6.72L20.61 13.15L18.10 6.72L16.94 6.72L19.96 14L20.26 14L20.01 14.62C19.61 15.55 19.21 16.11 18.31 16.11C17.91 16.11 17.51 16.03 17.16 15.92L17.02 16.73C17.42 16.88 17.89 16.95 18.26 16.95C19.67 16.95 20.30 16.14 20.86 14.81L24.19 6.72ZM35.50 6.58C34.31 6.58 33.22 6.99 32.07 7.85C31.70 7.01 30.93 6.58 29.88 6.58C28.73 6.58 27.68 6.96 26.57 7.76L26.38 6.72L25.65 6.72L25.65 14L26.68 14L26.68 8.62C27.66 7.97 28.71 7.50 29.61 7.50C30.67 7.50 31.30 8.12 31.30 9.30L31.30 14L32.34 14L32.34 9.25C32.34 9.04 32.33 8.83 32.30 8.65C33.28 7.98 34.31 7.50 35.24 7.50C36.32 7.50 36.93 8.13 36.93 9.30L36.93 14L37.97 14L37.97 9.25C37.97 7.50 37.04 6.58 35.50 6.58ZM43.43 6.58C41.38 6.58 39.80 8.19 39.80 10.33C39.80 12.50 41.34 14.14 43.44 14.14C45.11 14.14 46.37 13.06 46.61 11.76L45.61 11.76C45.40 12.66 44.55 13.23 43.44 13.23C42 13.23 40.94 12.15 40.82 10.63L46.65 10.63L46.75 10.54C46.93 8.41 45.44 6.58 43.43 6.58ZM40.87 9.74C41.12 8.39 42.18 7.48 43.41 7.48C44.70 7.48 45.60 8.48 45.74 9.76ZM52.92 6.58C51.76 6.58 50.69 6.99 49.57 7.78L49.41 6.72L48.65 6.72L48.65 14L49.69 14L49.69 8.65C50.68 7.98 51.74 7.50 52.65 7.50C53.76 7.50 54.39 8.12 54.39 9.30L54.39 14L55.44 14L55.44 9.25C55.44 7.50 54.49 6.58 52.92 6.58ZM56.91 7.62L58.04 7.62L58.04 12.00C58.04 13.57 58.91 14.14 60.03 14.14C60.77 14.14 61.47 13.99 62.05 13.73L61.94 12.84C61.42 13.06 60.83 13.22 60.19 13.22C59.50 13.22 59.08 12.85 59.08 11.98L59.08 7.62L62.01 7.62L62.01 6.72L59.08 6.72L59.08 4.65L58.07 4.91L58.07 6.72L56.91 6.72ZM63.22 8.54C63.22 11.48 68.18 10.02 68.19 12.05C68.21 12.88 67.40 13.29 66.22 13.29C65.00 13.29 64.02 12.75 63.83 11.69L62.83 11.69C63.06 13.34 64.54 14.14 66.19 14.14C67.91 14.14 69.22 13.40 69.22 12.05C69.22 9.14 64.25 10.57 64.25 8.54C64.25 7.94 64.85 7.43 66.12 7.43C67.52 7.43 68.01 8.13 68.11 8.99L69.08 8.99C68.99 7.70 68.08 6.58 66.15 6.58C64.22 6.58 63.22 7.43 63.22 8.54ZM80.12 14L81.61 14.01L77.62 10.35C79.90 10.25 81.52 8.99 81.52 7.11C81.52 5.12 79.77 3.78 77.36 3.78L75.15 3.78L75.15 14L76.24 14L76.24 10.35ZM77.35 4.73C79.20 4.73 80.42 5.68 80.42 7.11C80.42 8.51 79.20 9.42 77.36 9.42L76.24 9.42L76.24 4.73ZM86.56 6.58C84.52 6.58 82.94 8.19 82.94 10.33C82.94 12.50 84.48 14.14 86.58 14.14C88.24 14.14 89.50 13.06 89.74 11.76L88.75 11.76C88.54 12.66 87.68 13.23 86.58 13.23C85.13 13.23 84.07 12.15 83.96 10.63L89.78 10.63L89.88 10.54C90.06 8.41 88.58 6.58 86.56 6.58ZM84 9.74C84.25 8.39 85.32 7.48 86.55 7.48C87.84 7.48 88.73 8.48 88.87 9.76ZM97.83 6.72L97.66 7.87C97.03 7.03 96.10 6.58 94.92 6.58C92.88 6.58 91.24 8.20 91.24 10.32C91.24 12.46 92.86 14.07 94.95 14.07C96.11 14.07 96.98 13.65 97.59 12.87L97.59 13.71C97.59 15.11 96.46 16.06 95.03 16.06C93.90 16.06 92.95 15.57 92.78 14.80L91.77 14.80C92.06 16.10 93.34 16.95 95.03 16.95C97.05 16.95 98.56 15.64 98.56 13.71L98.56 6.72ZM94.99 13.17C93.53 13.17 92.30 11.91 92.30 10.32C92.30 8.72 93.53 7.49 94.99 7.49C96.19 7.49 97.06 8.13 97.52 9.09L97.52 11.56C97.03 12.56 96.19 13.17 94.99 13.17ZM101.58 5.10C102.02 5.10 102.38 4.73 102.38 4.27C102.38 3.85 102.02 3.50 101.58 3.50C101.14 3.50 100.79 3.85 100.79 4.27C100.79 4.73 101.14 5.10 101.58 5.10ZM102.07 6.72L101.02 6.72L101.02 14L102.07 14ZM104.24 8.54C104.24 11.48 109.20 10.02 109.21 12.05C109.23 12.88 108.42 13.29 107.24 13.29C106.02 13.29 105.04 12.75 104.85 11.69L103.85 11.69C104.08 13.34 105.56 14.14 107.21 14.14C108.93 14.14 110.24 13.40 110.24 12.05C110.24 9.14 105.27 10.57 105.27 8.54C105.27 7.94 105.87 7.43 107.14 7.43C108.54 7.43 109.03 8.13 109.13 8.99L110.10 8.99C110.01 7.70 109.10 6.58 107.17 6.58C105.24 6.58 104.24 7.43 104.24 8.54ZM111.26 7.62L112.39 7.62L112.39 12.00C112.39 13.57 113.26 14.14 114.38 14.14C115.12 14.14 115.82 13.99 116.40 13.73L116.28 12.84C115.77 13.06 115.18 13.22 114.53 13.22C113.85 13.22 113.43 12.85 113.43 11.98L113.43 7.62L116.35 7.62L116.35 6.72L113.43 6.72L113.43 4.65L112.42 4.91L112.42 6.72L111.26 6.72ZM120.96 6.58C118.92 6.58 117.33 8.19 117.33 10.33C117.33 12.50 118.87 14.14 120.97 14.14C122.64 14.14 123.90 13.06 124.14 11.76L123.14 11.76C122.93 12.66 122.08 13.23 120.97 13.23C119.53 13.23 118.47 12.15 118.36 10.63L124.18 10.63L124.28 10.54C124.46 8.41 122.98 6.58 120.96 6.58ZM118.40 9.74C118.65 8.39 119.71 7.48 120.95 7.48C122.23 7.48 123.13 8.48 123.27 9.76ZM129.68 6.58C128.91 6.58 128.04 6.97 127.11 7.76L126.92 6.72L126.18 6.72L126.18 14L127.22 14L127.22 8.75C128.13 7.98 128.87 7.59 129.49 7.59C129.81 7.59 130.09 7.64 130.33 7.73L130.45 6.71C130.24 6.64 129.99 6.58 129.68 6.58Z"></path></g><!----><g data-v-423bf9ae="" id="dd040dbe-6202-4e1d-b7c8-93fd6c7bde1d" transform="matrix(2.852072528086791,0,0,2.852072528086791,0.3618419448213217,-0.41116010653409063)" stroke="none" fill="#34A1E5"><path d="M16 23.787L8.102 16 16 8.213 23.898 16 16 23.787zM9.525 16L16 22.383 22.475 16 16 9.617 9.525 16z"></path><path d="M15.915 31.778L-.005 16.084 16.085.222l15.92 15.694-16.09 15.862zM1.419 16.084l14.496 14.29 14.666-14.458-14.496-14.29L1.419 16.084z"></path><path d="M15.5.924h1v30.152h-1z"></path></g><!----></svg>